<svg width="1266" height="651" xmlns="http://www.w3.org/2000/svg"><g><path d="M-79,-60L-88,175L-43,96Z" fill="#f7fff2" stroke="#f7fff2"/><path d="M-79,-60L-43,96L27,74Z" fill="#f6fdf3" stroke="#f6fdf3"/><path d="M-79,-60L27,74L59,-88Z" fill="#f6fcf4" stroke="#f6fcf4"/><path d="M59,-88L27,74L213,92Z" fill="#e9f8e5" stroke="#e9f8e5"/><path d="M59,-88L213,92L233,-62Z" fill="#e5f5e1" stroke="#e5f5e1"/><path d="M59,-88L233,-62L326,-62Z" fill="#e1f3dd" stroke="#e1f3dd"/><path d="M59,-88L326,-62L508,-81Z" fill="#d7efd4" stroke="#d7efd4"/><path d="M59,-88L508,-81L681,-104Z" fill="#c9e9c8" stroke="#c9e9c8"/><path d="M59,-88L681,-104L822,-128Z" fill="#bce3bd" stroke="#bce3bd"/><path d="M233,-62L213,92L354,31Z" fill="#d8f0d4" stroke="#d8f0d4"/><path d="M233,-62L354,31L326,-62Z" fill="#d6efd3" stroke="#d6efd3"/><path d="M326,-62L354,31L508,-81Z" fill="#cceaca" stroke="#cceaca"/><path d="M508,-81L354,31L512,89Z" fill="#c3e7c1" stroke="#c3e7c1"/><path d="M508,-81L512,89L625,118Z" fill="#b5e1b4" stroke="#b5e1b4"/><path d="M508,-81L625,118L681,-104Z" fill="#b1ddb6" stroke="#b1ddb6"/><path d="M681,-104L625,118L805,98Z" fill="#a0d7ab" stroke="#a0d7ab"/><path d="M681,-104L805,98L822,-128Z" fill="#9cd1ab" stroke="#9cd1ab"/><path d="M822,-128L805,98L927,-36Z" fill="#96caa6" stroke="#96caa6"/><path d="M822,-128L927,-36L1122,-63Z" fill="#8cbe9f" stroke="#8cbe9f"/><path d="M822,-128L1122,-63L1416,-63Z" fill="#80a897" stroke="#80a897"/><path d="M927,-36L805,98L869,190Z" fill="#8cc999" stroke="#8cc999"/><path d="M927,-36L869,190L1001,179Z" fill="#81c18f" stroke="#81c18f"/><path d="M927,-36L1001,179L1035,24Z" fill="#84ba96" stroke="#84ba96"/><path d="M927,-36L1035,24L1122,-63Z" fill="#85b49c" stroke="#85b49c"/><path d="M1122,-63L1035,24L1182,128Z" fill="#7da993" stroke="#7da993"/><path d="M1122,-63L1182,128L1293,17Z" fill="#7d9d8f" stroke="#7d9d8f"/><path d="M1122,-63L1293,17L1335,-18Z" fill="#809690" stroke="#809690"/><path d="M1122,-63L1335,-18L1416,-63Z" fill="#80918e" stroke="#80918e"/><path d="M1335,-18L1293,17L1434,69Z" fill="#7e8888" stroke="#7e8888"/><path d="M1335,-18L1434,69L1416,-63Z" fill="#808388" stroke="#808388"/><path d="M-43,96L-88,175L40,178Z" fill="#e3fddd" stroke="#e3fddd"/><path d="M-43,96L40,178L27,74Z" fill="#e7fbe1" stroke="#e7fbe1"/><path d="M27,74L40,178L213,92Z" fill="#def8d8" stroke="#def8d8"/><path d="M213,92L40,178L211,171Z" fill="#d0f5c9" stroke="#d0f5c9"/><path d="M213,92L211,171L354,31Z" fill="#d1f1ca" stroke="#d1f1ca"/><path d="M354,31L211,171L426,196Z" fill="#c1eeba" stroke="#c1eeba"/><path d="M354,31L426,196L512,89Z" fill="#bce8b6" stroke="#bce8b6"/><path d="M512,89L426,196L525,267Z" fill="#a2e59e" stroke="#a2e59e"/><path d="M512,89L525,267L625,118Z" fill="#a0e19d" stroke="#a0e19d"/><path d="M625,118L525,267L631,245Z" fill="#8cdc8f" stroke="#8cdc8f"/><path d="M625,118L631,245L805,98Z" fill="#8ed895" stroke="#8ed895"/><path d="M805,98L631,245L869,190Z" fill="#7fd18a" stroke="#7fd18a"/><path d="M1035,24L1001,179L1128,191Z" fill="#70b184" stroke="#70b184"/><path d="M1035,24L1128,191L1182,128Z" fill="#72a985" stroke="#72a985"/><path d="M1182,128L1128,191L1254,257Z" fill="#5f9e6f" stroke="#5f9e6f"/><path d="M1182,128L1254,257L1419,193Z" fill="#5e916a" stroke="#5e916a"/><path d="M1182,128L1419,193L1293,17Z" fill="#72907c" stroke="#72907c"/><path d="M1293,17L1419,193L1434,69Z" fill="#77857c" stroke="#77857c"/><path d="M1434,69L1419,193L1474,802Z" fill="#2c6941" stroke="#2c6941"/><path d="M-88,175L-60,681L-57,584Z" fill="#8fcda3" stroke="#8fcda3"/><path d="M-88,175L-57,584L-58,367Z" fill="#a4e5b3" stroke="#a4e5b3"/><path d="M-88,175L-58,367L40,178Z" fill="#cbf7c8" stroke="#cbf7c8"/><path d="M40,178L-58,367L66,430Z" fill="#abe9b2" stroke="#abe9b2"/><path d="M40,178L66,430L187,375Z" fill="#a1e5a8" stroke="#a1e5a8"/><path d="M40,178L187,375L211,171Z" fill="#b7f0b4" stroke="#b7f0b4"/><path d="M211,171L187,375L426,196Z" fill="#a8e9a5" stroke="#a8e9a5"/><path d="M426,196L187,375L397,424Z" fill="#87da8e" stroke="#87da8e"/><path d="M426,196L397,424L525,267Z" fill="#85da89" stroke="#85da89"/><path d="M525,267L397,424L512,381Z" fill="#6ece7c" stroke="#6ece7c"/><path d="M525,267L512,381L631,245Z" fill="#77d37e" stroke="#77d37e"/><path d="M631,245L512,381L711,422Z" fill="#5ec771" stroke="#5ec771"/><path d="M631,245L711,422L806,336Z" fill="#55c26d" stroke="#55c26d"/><path d="M631,245L806,336L869,190Z" fill="#68c977" stroke="#68c977"/><path d="M869,190L806,336L973,415Z" fill="#4db765" stroke="#4db765"/><path d="M869,190L973,415L1001,179Z" fill="#58b76b" stroke="#58b76b"/><path d="M1001,179L973,415L1122,387Z" fill="#3ba25b" stroke="#3ba25b"/><path d="M1001,179L1122,387L1128,191Z" fill="#4da566" stroke="#4da566"/><path d="M1128,191L1122,387L1254,257Z" fill="#45975b" stroke="#45975b"/><path d="M1254,257L1122,387L1217,395Z" fill="#2f884f" stroke="#2f884f"/><path d="M1254,257L1217,395L1402,315Z" fill="#377f4e" stroke="#377f4e"/><path d="M1254,257L1402,315L1419,193Z" fill="#4c8057" stroke="#4c8057"/><path d="M1419,193L1402,315L1409,551Z" fill="#2d6a43" stroke="#2d6a43"/><path d="M1419,193L1409,551L1474,802Z" fill="#0a432a" stroke="#0a432a"/><path d="M-58,367L-57,584L30,503Z" fill="#8aca9e" stroke="#8aca9e"/><path d="M-58,367L30,503L66,430Z" fill="#90d5a1" stroke="#90d5a1"/><path d="M66,430L30,503L188,492Z" fill="#7fc892" stroke="#7fc892"/><path d="M66,430L188,492L187,375Z" fill="#82d092" stroke="#82d092"/><path d="M187,375L188,492L397,424Z" fill="#77cb87" stroke="#77cb87"/><path d="M397,424L188,492L415,550Z" fill="#63ba77" stroke="#63ba77"/><path d="M397,424L415,550L555,542Z" fill="#51ad68" stroke="#51ad68"/><path d="M397,424L555,542L512,381Z" fill="#59bc6c" stroke="#59bc6c"/><path d="M512,381L555,542L711,422Z" fill="#4bb563" stroke="#4bb563"/><path d="M711,422L555,542L725,498Z" fill="#39a659" stroke="#39a659"/><path d="M711,422L725,498L853,509Z" fill="#2fa254" stroke="#2fa254"/><path d="M711,422L853,509L806,336Z" fill="#38ab5a" stroke="#38ab5a"/><path d="M806,336L853,509L973,415Z" fill="#31a455" stroke="#31a455"/><path d="M973,415L853,509L926,561Z" fill="#1e8d48" stroke="#1e8d48"/><path d="M973,415L926,561L1075,565Z" fill="#137d41" stroke="#137d41"/><path d="M973,415L1075,565L1122,387Z" fill="#1a8645" stroke="#1a8645"/><path d="M1122,387L1075,565L1217,395Z" fill="#187d42" stroke="#187d42"/><path d="M1217,395L1075,565L1305,488Z" fill="#116b3a" stroke="#116b3a"/><path d="M1217,395L1305,488L1402,315Z" fill="#217041" stroke="#217041"/><path d="M1402,315L1305,488L1409,551Z" fill="#175c35" stroke="#175c35"/><path d="M-57,584L-60,681L56,665Z" fill="#79988a" stroke="#79988a"/><path d="M-57,584L56,665L30,503Z" fill="#76a98e" stroke="#76a98e"/><path d="M30,503L56,665L188,492Z" fill="#6eaf88" stroke="#6eaf88"/><path d="M188,492L56,665L176,679Z" fill="#689b7c" stroke="#689b7c"/><path d="M188,492L176,679L371,684Z" fill="#5d9470" stroke="#5d9470"/><path d="M188,492L371,684L415,550Z" fill="#559e6d" stroke="#559e6d"/><path d="M415,550L371,684L523,629Z" fill="#478a5c" stroke="#478a5c"/><path d="M415,550L523,629L555,542Z" fill="#40955b" stroke="#40955b"/><path d="M555,542L523,629L650,719Z" fill="#367e4d" stroke="#367e4d"/><path d="M555,542L650,719L725,498Z" fill="#2c884e" stroke="#2c884e"/><path d="M725,498L650,719L884,733Z" fill="#1e6c3f" stroke="#1e6c3f"/><path d="M725,498L884,733L853,509Z" fill="#197c43" stroke="#197c43"/><path d="M853,509L884,733L926,561Z" fill="#136f3c" stroke="#136f3c"/><path d="M926,561L884,733L944,673Z" fill="#105a34" stroke="#105a34"/><path d="M926,561L944,673L1075,565Z" fill="#0a6437" stroke="#0a6437"/><path d="M1075,565L944,673L1092,768Z" fill="#05462c" stroke="#05462c"/><path d="M1075,565L1092,768L1168,667Z" fill="#003d28" stroke="#003d28"/><path d="M1075,565L1168,667L1245,655Z" fill="#00422a" stroke="#00422a"/><path d="M1075,565L1245,655L1305,488Z" fill="#004f2f" stroke="#004f2f"/><path d="M1305,488L1245,655L1409,551Z" fill="#004129" stroke="#004129"/><path d="M1409,551L1245,655L1404,664Z" fill="#002a21" stroke="#002a21"/><path d="M1409,551L1404,664L1474,802Z" fill="#001117" stroke="#001117"/><path d="M-60,681L-31,844L56,816Z" fill="#787d78" stroke="#787d78"/><path d="M-60,681L56,816L56,665Z" fill="#757e7c" stroke="#757e7c"/><path d="M56,665L56,816L176,679Z" fill="#6d7a73" stroke="#6d7a73"/><path d="M176,679L56,816L184,875Z" fill="#687666" stroke="#687666"/><path d="M176,679L184,875L399,797Z" fill="#5c725a" stroke="#5c725a"/><path d="M176,679L399,797L371,684Z" fill="#56715c" stroke="#56715c"/><path d="M371,684L399,797L523,629Z" fill="#487052" stroke="#487052"/><path d="M523,629L399,797L512,866Z" fill="#426646" stroke="#426646"/><path d="M523,629L512,866L650,719Z" fill="#386141" stroke="#386141"/><path d="M650,719L512,866L722,807Z" fill="#2e5c35" stroke="#2e5c35"/><path d="M650,719L722,807L884,733Z" fill="#1e5332" stroke="#1e5332"/><path d="M884,733L722,807L787,863Z" fill="#1b4f2a" stroke="#1b4f2a"/><path d="M884,733L787,863L931,824Z" fill="#154925" stroke="#154925"/><path d="M884,733L931,824L944,673Z" fill="#104428" stroke="#104428"/><path d="M944,673L931,824L1092,768Z" fill="#0a3a23" stroke="#0a3a23"/><path d="M1168,667L1092,768L1239,776Z" fill="#00221c" stroke="#00221c"/><path d="M1168,667L1239,776L1245,655Z" fill="#00241e" stroke="#00241e"/><path d="M1245,655L1239,776L1404,664Z" fill="#001a1a" stroke="#001a1a"/><path d="M1404,664L1239,776L1474,802Z" fill="#000610" stroke="#000610"/><path d="M-31,844L184,875L56,816Z" fill="#6f796d" stroke="#6f796d"/><path d="M184,875L787,863L512,866Z" fill="#406540" stroke="#406540"/><path d="M184,875L512,866L399,797Z" fill="#506d4d" stroke="#506d4d"/><path d="M512,866L787,863L722,807Z" fill="#285932" stroke="#285932"/><path d="M787,863L1474,802L931,824Z" fill="#02301a" stroke="#02301a"/><path d="M931,824L1474,802L1239,776Z" fill="#001c12" stroke="#001c12"/><path d="M931,824L1239,776L1092,768Z" fill="#002d1a" stroke="#002d1a"/></g></svg>